<svg id="Layer_1"  data-name="Layer 1" xmlns="http://www.w3.org/2000/svg" viewBox="0 0 510.16 233.5">
<defs><style>.cls-1{fill:#3f993c;}.cls-2{fill:black;}</style></defs>
<title>ayu care</title>
<path class="cls-1" d="M572,270.51c2.57,2.19,1.81,6,4.44,8.5,2.53-3.24,1.79-7,4.53-9.59,33.26-31.86,25.89-64.19-5.31-88.53-31.74,23.77-34.75,63.17-3.66,89.62" transform="translate(-165.87 -180.89)"/><path class="cls-1" d="M577.49,296.74l8.29,7.06c34.06,24.33,79.57,2.51,90.24-39-31.92-24.87-78.14-16.37-98.53,31.93" transform="translate(-165.87 -180.89)"/><path class="cls-1" d="M474.67,267c19.52,49.16,58.95,59.57,94.73,35.77l8.09-6C557.39,254.15,514,235.13,474.67,267" transform="translate(-165.87 -180.89)"/><path class="cls-2" d="M224.35,276.73l-9.55-20.5a127,127,0,0,1-5.07-13h-.27c-1.47,4.21-3.07,8.55-5,12.87L195,276.73Zm-32,7.17-10.15,22.41h-13l33.13-71.2h15.22l33.31,71.2H237.38L227,283.9Z" transform="translate(-165.87 -180.89)"/><path class="cls-2" d="M275.47,306.31V276.08l-30.86-41H259l13.76,19.63c3.76,5.4,6.68,9.74,9.7,14.7h.3c2.75-4.65,6.09-9.3,9.83-14.7l14-19.63h14.34L288.22,276v30.33Z" transform="translate(-165.87 -180.89)"/><path class="cls-2" d="M344.68,235.11v42.16c0,15.94,9.72,22.71,22.74,22.71,14.48,0,23.74-7,23.74-22.71V235.11h12.76v41.5c0,21.9-15.79,30.86-36.94,30.86-20,0-35-8.35-35-30.43V235.11Z" transform="translate(-165.87 -180.89)"/><path class="cls-1" d="M269.15,377a57.41,57.41,0,0,1-4.72,14.45,42.11,42.11,0,0,1-7.85,11.17q-4.71,4.8-13.11,7.72A82.54,82.54,0,0,1,223,414.26h-.39a1.58,1.58,0,0,0-.58.13h-2.83c-1.33,0-2.73-.05-4.14-.08s-2.86-.17-4.3-.35a40.28,40.28,0,0,1-9-2.18,71.76,71.76,0,0,1-6.74-2.54,65.38,65.38,0,0,1-6.43-3.22,41.85,41.85,0,0,1-6.13-4.24,48.78,48.78,0,0,1-5.18-4.95,22,22,0,0,1-1.65-1.83c-.47-.6-1-1.21-1.5-1.86s-.85-1.26-1.31-1.84a9.9,9.9,0,0,1-1.19-1.84,32.8,32.8,0,0,1-2.68-4.8,43.25,43.25,0,0,1-1.88-5.09,39.46,39.46,0,0,1-.94-5.54,56,56,0,0,1-.31-6.24,52,52,0,0,1,1.56-12.94,42,42,0,0,1,4.72-11.31,37.74,37.74,0,0,1,8.23-9.4,62.06,62.06,0,0,1,11.87-7.62,48.9,48.9,0,0,1,6.43-2.81,68.6,68.6,0,0,1,6.73-2,50.93,50.93,0,0,1,6.84-1.16c2.25-.22,4.51-.35,6.8-.35a60.6,60.6,0,0,1,11.09,1,62.23,62.23,0,0,1,10.75,3.09,63.48,63.48,0,0,1,9.88,4.89,54.38,54.38,0,0,1,8.82,6.65,7.28,7.28,0,0,0,.67.82,10.85,10.85,0,0,1,.73.83,4.77,4.77,0,0,0,.69.74,7.93,7.93,0,0,0,.86.63,25.37,25.37,0,0,1,2.68,3.9,21.19,21.19,0,0,1,1.73,4,26.69,26.69,0,0,1,1.25,4.32c.3,1.49.57,3.12.76,4.85l-31.68-.28a12.84,12.84,0,0,0-1.8-5.32,16.62,16.62,0,0,0-4.16-4.53,18.75,18.75,0,0,0-5.58-2.94,21,21,0,0,0-6.69-1,20.16,20.16,0,0,0-6.57,1,15.74,15.74,0,0,0-5.33,3.06,21.21,21.21,0,0,0-6.43,10v.28c-.13.08-.17.15-.17.2v.61c-.11.09-.16.15-.16.2v.21c-.09.55-.22,1.19-.31,1.91s-.21,1.58-.32,2.47-.15,1.88-.15,2.81v5.41a2.48,2.48,0,0,0,.15.82,35.19,35.19,0,0,0,.24,4.12,31.31,31.31,0,0,0,.72,4,15.51,15.51,0,0,0,1.16,3.36,7.51,7.51,0,0,0,1.82,2.4,39.62,39.62,0,0,0,3.45,3.17,25.23,25.23,0,0,0,3.75,2.45,23.82,23.82,0,0,0,4.24,1.52,20.11,20.11,0,0,0,4.56.53H221a6.75,6.75,0,0,0,1.26-.14c.43-.09.84-.17,1.25-.28l1.26-.26a19.73,19.73,0,0,0,5.34-2.06,18.1,18.1,0,0,0,4.08-3.16,12.78,12.78,0,0,0,2.58-4.22,17.24,17.24,0,0,0,1-5.09V377Z" transform="translate(-165.87 -180.89)"/><path class="cls-1" d="M328.31,382.46l-11-31.21L306,382.46Zm-68.26,31.93,39.24-94.46h35.79l39.23,94.46H339.77l-5.33-12.46H299.29l-3.44,12.46Z" transform="translate(-165.87 -180.89)"/><path class="cls-1" d="M432.25,362.46a.43.43,0,0,0,.3.13h.3a7.1,7.1,0,0,0,3-.61,8.12,8.12,0,0,0,2.45-1.72,7.25,7.25,0,0,0,1.81-2.73,12.86,12.86,0,0,0,.71-3.15v-1a9.51,9.51,0,0,0-.62-3.37,10.57,10.57,0,0,0-1.9-2.93,6.28,6.28,0,0,0-2.77-2.2,9.64,9.64,0,0,0-3.67-.68L414.34,344v18.5ZM377.3,414.39V319.93h61.51c.09.18.21.29.32.29h1.12A48.8,48.8,0,0,1,453,322.1a52.87,52.87,0,0,1,11.76,5.06,22.87,22.87,0,0,1,8.48,8.14A22.17,22.17,0,0,1,476,346.57v1.37a2.09,2.09,0,0,0-.18.75v.61c-.09.39-.17.81-.24,1.31a10.78,10.78,0,0,1-.2,1.45,32.59,32.59,0,0,1-1.82,5.69,19.24,19.24,0,0,1-2.91,4.71,26.45,26.45,0,0,1-4.09,3.92,30.79,30.79,0,0,1-5.47,3.33c1.46.85,2.82,1.64,4.09,2.47a21.86,21.86,0,0,1,3.25,2.62,16,16,0,0,1,2.59,3.14,39,39,0,0,1,2.31,3.86,11.91,11.91,0,0,1,.53,1.42c.16.51.31,1,.42,1.44s.16.89.23,1.28a8.35,8.35,0,0,1,.07,1.34v1.2a1.07,1.07,0,0,0-.16.64v.61a1.89,1.89,0,0,1-.09.52,2.87,2.87,0,0,0-.05.57,1.87,1.87,0,0,0-.17.68v.56c-.11.35-.22.76-.34,1.17a5.68,5.68,0,0,0-.14,1.27,5.08,5.08,0,0,0-.15,1.18v2.13a1.15,1.15,0,0,0,.08.46,2,2,0,0,1,.07.5v.42a.51.51,0,0,0,.14.39,2.87,2.87,0,0,0,.09.49,1.27,1.27,0,0,1,.1.48v1.29a5.47,5.47,0,0,0,.14,1.31v.54a1.07,1.07,0,0,0,.17.56,3.09,3.09,0,0,0,.05.67,1.51,1.51,0,0,0,.25.55c.1.38.2.71.29,1s.23.66.36,1a2.33,2.33,0,0,1,.21.54,1.59,1.59,0,0,0,.25.55,1.63,1.63,0,0,0,.06.54,3,3,0,0,0,.25.55,1.34,1.34,0,0,0,.06.35.85.85,0,0,0,.24.33v.22s.05,0,.16,0a.35.35,0,0,0,.08.23.22.22,0,0,1,.1.18v.22s0,.07.15.07v.27a.82.82,0,0,0,.05.28.92.92,0,0,0,.25.28,4,4,0,0,1,.3.62c.15.22.22.43.34.61a2.67,2.67,0,0,0,.36.54c.19.18.31.32.42.43h-35.8a1.11,1.11,0,0,1-.23-.5,2.9,2.9,0,0,0-.23-.6,1.48,1.48,0,0,1-.22-.63,2.47,2.47,0,0,1-.11-.75,3.38,3.38,0,0,1-.23-.48,1.18,1.18,0,0,1-.09-.36v-.53a.36.36,0,0,1-.14-.27V410a5.5,5.5,0,0,1-.23-1.1,7.62,7.62,0,0,1-.08-1.08,5.28,5.28,0,0,1-.16-1v-2.68a3.22,3.22,0,0,1,.08-.67,2.86,2.86,0,0,0,.08-.82,12.93,12.93,0,0,0,.22-1.43c.07-.5.14-1,.23-1.43a11.26,11.26,0,0,0,.25-1.47c.06-.48.14-1,.24-1.42v-.61a1.72,1.72,0,0,1,.16-.75v-1.37a6.75,6.75,0,0,0-.08-1.11,6.54,6.54,0,0,1-.08-1.08c-.1-.28-.2-.6-.33-.95s-.19-.73-.3-1.12a4.62,4.62,0,0,0-.47-1c-.21-.3-.48-.64-.77-1s-.49-.57-.81-.88-.63-.66-.93-1l-2.68-2.61H414.5v31.1Z" transform="translate(-165.87 -180.89)"/><polygon class="cls-1" points="313.74 139.04 401.95 139.04 401.95 162.01 350.94 162.01 350.94 175.7 392.06 175.7 392.06 198.02 350.94 198.02 350.94 211.86 403.06 211.86 403.06 233.5 313.74 233.5 313.74 139.04"/><path class="cls-1" d="M430.68,307.47c-4.9,0-8.39-2.85-8.39-6.56,0-3.9,3.61-6.65,8.72-6.65s8.37,2.75,8.52,6.65c0,3.71-3.33,6.56-8.69,6.56Zm0-37.32c-4.9,0-8.39-2.82-8.39-6.53,0-3.91,3.61-6.75,8.72-6.75s8.37,2.84,8.52,6.75c0,3.71-3.33,6.53-8.69,6.53Z" transform="translate(-165.87 -180.89)"/></svg>